<svg width="900" height="900" viewBox="0 0 900 900" fill="none" xmlns="http://www.w3.org/2000/svg">
  <rect width="900" height="900" rx="96" fill="#05070D"/>
  <path d="M112 366C270 196 424 266 450 472C482 260 643 201 788 365C636 367 555 436 505 563C486 608 466 654 450 713C433 655 413 609 395 564C343 438 263 367 112 366Z" fill="url(#wing)"/>
  <path d="M450 322C504 388 517 470 489 568C476 613 462 663 450 724C437 663 424 613 411 568C383 470 396 388 450 322Z" fill="#F5F1E8"/>
  <path d="M450 322C504 388 517 470 489 568C476 613 462 663 450 724V322Z" fill="#37E5D2"/>
  <path d="M437 352L385 300L453 316L437 352Z" fill="#DDBB72"/>
  <path d="M132 377C254 408 324 472 371 584" stroke="#05070D" stroke-width="18" stroke-linecap="round" opacity=".45"/>
  <path d="M768 377C646 408 576 472 529 584" stroke="#05070D" stroke-width="18" stroke-linecap="round" opacity=".45"/>
  <text x="86" y="118" fill="#A77BFF" font-family="Arial, sans-serif" font-size="30" font-weight="700" letter-spacing="8">SKY COURIER</text>
  <text x="86" y="792" fill="#F5F1E8" font-family="Arial, sans-serif" font-size="54" font-weight="800" letter-spacing="3">ARGENTAVIS</text>
  <defs>
    <linearGradient id="wing" x1="112" y1="302" x2="783" y2="713" gradientUnits="userSpaceOnUse">
      <stop stop-color="#37E5D2"/>
      <stop offset=".5" stop-color="#A77BFF"/>
      <stop offset="1" stop-color="#DDBB72"/>
    </linearGradient>
  </defs>
</svg>
